# xmcd
#
# Track frame offsets:
#	150
#	14955
#	37025
#	51707
#	71317
#	87927
#	104262
#	122797
#	139530
#	159372
#
# Disc length: 2356 seconds
#
# Revision: 0
# Processed by: cddbd v1.5.2PL0 Copyright (c) Steve Scherf et al.
# Submitted via: EasyCDDAExtractor 12.0.0.1
#
DISCID=8b09320a
DTITLE=Emmanuel - Solo
DYEAR=1986
DGENRE=Latin
TTITLE0=Con Que Derecho
TTITLE1=Toda La Vida (Tutta La Vita)
TTITLE2=Mujer De Tantos Hombres
TTITLE3=Luces De Bohemia Para Elisa
TTITLE4=No Te Quites La Ropa
TTITLE5=Rayo De Luna
TTITLE6=Enfrentarnos De Nuevo A La Vida
TTITLE7=Es Mi Mujer
TTITLE8=Solo
TTITLE9=Que Largo Fin De Semana
EXTD=
EXTT0=
EXTT1=
EXTT2=
EXTT3=
EXTT4=
EXTT5=
EXTT6=
EXTT7=
EXTT8=
EXTT9=
PLAYORDER=
